<svg xmlns="http://www.w3.org/2000/svg" width="383" height="192" viewBox="0 0 383 192" version="1.1"><path d="M 347.321 17.613 C 343.264 19.614, 340.586 25.059, 341.348 29.756 C 342.036 33.994, 344.395 36.808, 348.836 38.687 C 353.144 40.510, 357.932 39.057, 361.467 34.857 C 366.105 29.345, 363.995 20.149, 357.466 17.421 C 353.163 15.623, 351.284 15.659, 347.321 17.613 M 21.062 135.827 C 17.393 137.795, 14 143.051, 14 146.767 C 14 150.874, 16.694 155.648, 20.253 157.848 C 23.459 159.829, 25.082 160, 40.646 160 C 58.995 160, 62 160.760, 62 165.402 C 62 170.537, 60.031 171, 38.171 171 C 27.077 171, 17.977 171.113, 17.949 171.250 C 17.921 171.387, 17.654 173.412, 17.356 175.750 L 16.814 180 40.456 180 C 65.925 180, 67.059 179.803, 72 174.514 C 74.076 172.293, 74.500 170.848, 74.500 166 C 74.500 161.161, 74.072 159.697, 72 157.452 C 67.614 152.699, 64.443 152, 47.255 152 C 30.498 152, 27 151.148, 27 147.066 C 27 142.989, 29.340 142.515, 51.151 142.178 L 72 141.855 72 137.928 L 72 134 48.234 134 C 27.127 134, 24.088 134.204, 21.062 135.827 M 105.788 135.107 C 102.079 136.522, 99.884 140.407, 90.932 161.402 L 83.215 179.500 89.252 179.801 C 92.573 179.967, 95.838 179.892, 96.509 179.635 C 97.180 179.377, 99.439 174.753, 101.530 169.357 C 106.768 155.837, 110.620 147.523, 112.530 145.612 C 114.542 143.601, 119.874 143.523, 122.646 145.465 C 124.502 146.764, 131.596 162.006, 136.509 175.250 L 138.272 180 145.252 180 C 151.415 180, 152.178 179.795, 151.759 178.250 C 150 171.751, 135.972 141.144, 133.375 138.138 L 130.233 134.500 119.366 134.286 C 113.390 134.168, 107.280 134.537, 105.788 135.107 M 156.266 145.765 L 168 157.530 168 168.765 L 168 180 175 180 L 182 180 182 168.765 L 182 157.530 193.734 145.765 L 205.469 134 197.484 134.009 L 189.500 134.018 183 140.474 C 179.425 144.025, 176.050 146.926, 175.500 146.919 C 174.950 146.913, 171.350 144.007, 167.500 140.462 L 160.500 134.017 152.516 134.009 L 144.531 134 156.266 145.765 M 211 134.759 C 211 136.193, 225.976 171.224, 227.963 174.440 C 230.814 179.053, 233.769 180, 245.297 179.996 C 261.142 179.990, 260.586 180.589, 273.603 149.500 L 279.884 134.500 273.291 134.201 C 269.665 134.036, 266.355 134.261, 265.935 134.701 C 265.515 135.140, 263.598 139.550, 261.675 144.500 C 259.751 149.450, 256.596 156.971, 254.663 161.212 C 250.946 169.369, 249.434 170.525, 243.403 169.828 C 239.531 169.381, 237.555 166.136, 230.517 148.670 L 224.606 134 217.803 134 C 214.061 134, 211 134.342, 211 134.759" stroke="none" fill="#080808" fill-rule="evenodd"/><path d="M 345.500 7.061 C 341.027 8.374, 334.986 13.822, 332.893 18.429 C 331.812 20.809, 331.044 24.784, 331.044 28 C 331.044 47.182, 352.968 57.058, 367.136 44.259 C 372.786 39.154, 374.294 35.697, 374.294 27.854 C 374.294 17.561, 369.297 10.272, 360.101 7.153 C 356.188 5.826, 349.844 5.786, 345.500 7.061 M 346.500 12.417 C 339.146 15.700, 334.700 24.718, 336.868 31.955 C 338.518 37.462, 342.275 41.558, 347.510 43.557 C 361.454 48.882, 374.224 32.898, 366.729 19.500 C 362.842 12.550, 353.517 9.285, 346.500 12.417 M 345.872 17.750 C 344.680 19.271, 344.697 19.354, 346 18.384 C 346.825 17.771, 348.175 17.019, 349 16.713 C 350.255 16.249, 350.234 16.145, 348.872 16.079 C 347.977 16.036, 346.627 16.788, 345.872 17.750 M 357.685 17.464 C 363.747 20.100, 365.972 29.224, 361.835 34.483 C 360.644 35.997, 358.281 37.880, 356.585 38.667 L 353.500 40.099 356.500 39.488 C 358.150 39.152, 360.625 37.770, 362 36.416 C 364.121 34.328, 364.500 33.035, 364.500 27.895 C 364.500 22.315, 364.242 21.605, 361.234 18.918 C 359.438 17.313, 357.188 16.018, 356.234 16.039 C 355.237 16.062, 355.854 16.667, 357.685 17.464 M 341.872 21.654 C 341.118 22.563, 340.500 25.523, 340.500 28.231 C 340.500 32.638, 340.891 33.512, 344.235 36.577 C 346.290 38.460, 348.765 39.982, 349.735 39.961 C 350.843 39.936, 350.382 39.428, 348.500 38.597 C 342.101 35.773, 339.379 28.956, 342.307 23.087 C 344.032 19.629, 343.904 19.206, 341.872 21.654 M 131.481 51.892 C 127.071 54.534, 106.371 66.482, 85.481 78.442 C 64.591 90.402, 46.712 101.095, 45.750 102.204 C 41.372 107.251, 45.959 115.755, 52.487 114.696 C 54.323 114.398, 63.853 109.475, 73.663 103.757 C 83.473 98.038, 98.025 89.600, 106 85.006 C 113.975 80.412, 125.375 73.806, 131.333 70.326 C 137.292 66.847, 142.537 64, 142.989 64 C 143.442 64, 154.992 70.583, 168.656 78.630 C 182.320 86.676, 198.900 96.302, 205.500 100.020 C 212.100 103.738, 220.650 108.655, 224.500 110.946 C 229.747 114.067, 232.252 114.997, 234.501 114.658 C 238.662 114.032, 329.043 61.822, 331.377 58.697 C 333.571 55.758, 333.034 52.034, 329.975 48.975 C 326.344 45.344, 322.483 46.396, 307.471 55.107 C 299.787 59.566, 287.200 66.841, 279.500 71.274 C 271.800 75.706, 258.390 83.515, 249.701 88.628 L 233.902 97.923 212.701 85.656 C 155.729 52.692, 145.376 47.001, 142.462 47.044 C 140.765 47.069, 136.076 49.139, 131.481 51.892 M 48.750 133.749 L 72 134.037 72 137.946 L 72 141.855 51.151 142.178 C 29.412 142.514, 27 142.995, 27 147 C 27 147.965, 27.755 149.373, 28.677 150.128 C 30.173 151.352, 30.241 151.295, 29.308 149.608 C 27.563 146.453, 28.839 144.289, 32.836 143.628 C 34.851 143.295, 44.712 143.017, 54.750 143.011 L 73 143 73 138 L 73 133 49.250 133.231 L 25.500 133.461 48.750 133.749 M 114.776 133.733 C 117.128 133.945, 120.728 133.942, 122.776 133.727 C 124.824 133.512, 122.900 133.339, 118.500 133.343 C 114.100 133.346, 112.424 133.522, 114.776 133.733 M 144 133.766 C 144 134.188, 149.162 139.679, 155.470 145.970 L 166.940 157.408 167.220 168.954 L 167.500 180.500 175.250 180.792 L 183 181.084 183 169.217 L 183 157.349 195.001 146.081 C 201.602 139.884, 206.750 134.405, 206.442 133.907 C 206.134 133.408, 202.196 133.001, 197.691 133.001 L 189.500 133.002 183.520 138.438 C 180.231 141.428, 177.783 144.116, 178.079 144.412 C 178.375 144.708, 181.050 142.487, 184.024 139.475 L 189.432 134 197.450 134 L 205.469 134 193.734 145.765 L 182 157.530 182 168.765 L 182 180 175 180 L 168 180 168 168.765 L 168 157.530 156.266 145.765 L 144.531 134 152.516 134.009 L 160.500 134.017 167.500 140.462 C 174.192 146.624, 177 148.243, 177 145.941 C 177 145.359, 176.520 145.179, 175.934 145.541 C 175.347 145.903, 171.791 143.230, 168.031 139.600 L 161.194 133 152.597 133 C 147.869 133, 144 133.345, 144 133.766 M 210 134.259 C 210 136.103, 224.610 170.633, 227.084 174.636 C 230.379 179.967, 233.404 181.001, 245.700 180.996 C 261.459 180.991, 261.340 181.094, 271.014 159 C 273.301 153.775, 275.997 148.730, 277.003 147.789 C 278.061 146.800, 278.621 145.266, 278.330 144.156 C 278.054 143.099, 278.542 140.853, 279.414 139.166 C 282.354 133.481, 281.862 133, 273.109 133 L 265.218 133 260.359 145.206 C 254.781 159.218, 254.368 160.433, 256.351 157 C 257.145 155.625, 259.454 150.225, 261.483 145 C 263.511 139.775, 265.515 135.140, 265.935 134.701 C 266.355 134.261, 269.665 134.036, 273.291 134.201 L 279.884 134.500 273.603 149.500 C 260.586 180.589, 261.142 179.990, 245.297 179.996 C 233.769 180, 230.814 179.053, 227.963 174.440 C 225.976 171.224, 211 136.193, 211 134.759 C 211 134.342, 214.061 134, 217.803 134 L 224.606 134 230.517 148.670 C 237.052 164.888, 239.603 169.360, 242.535 169.742 C 244.171 169.955, 244.124 169.836, 242.252 169.032 C 239.906 168.024, 237.575 163.431, 231.322 147.500 C 225.290 132.129, 226.121 133, 217.474 133 C 212.133 133, 210 133.359, 210 134.259 M 294.500 134.403 C 292.850 135.131, 290.684 136.643, 289.687 137.762 C 286.536 141.298, 270.145 179.478, 271.287 180.620 C 272.172 181.505, 284.596 181.868, 285.924 181.047 C 286.515 180.682, 289.202 175.009, 291.894 168.441 C 301.777 144.333, 301.760 144.357, 307.497 145.433 C 311.975 146.274, 312.644 147.352, 319.934 165.510 L 325.953 180.500 333.976 180.790 C 338.955 180.971, 342 180.694, 342 180.061 C 342 176.986, 326.281 141.153, 323.602 138.121 C 322.446 136.813, 320.052 135.125, 318.282 134.371 C 314.129 132.601, 298.534 132.622, 294.500 134.403 M 345.667 133.667 C 345.300 134.033, 345 144.785, 345 157.560 C 345 184.084, 344.161 181.999, 354.832 182.001 L 361.500 182.002 361.226 158.751 C 361.076 145.963, 360.752 134.938, 360.508 134.250 C 360.035 132.923, 346.926 132.408, 345.667 133.667 M 16.923 137.923 C 15.315 139.531, 14.003 141.668, 14.006 142.673 C 14.010 143.941, 14.485 143.582, 15.556 141.500 C 16.405 139.850, 18.090 137.723, 19.300 136.772 C 20.510 135.822, 21.128 135.034, 20.673 135.022 C 20.218 135.010, 18.531 136.315, 16.923 137.923 M 102.278 136.250 C 100.575 138.453, 99.791 140.574, 101.426 138.559 C 102.291 137.492, 103.562 136.261, 104.250 135.824 C 105.067 135.305, 105.110 135.025, 104.372 135.015 C 103.752 135.007, 102.810 135.563, 102.278 136.250 M 133.892 138.769 C 136.454 142.003, 152 176.626, 152 179.098 C 152 179.594, 148.885 180, 145.078 180 L 138.155 180 136.978 176.433 C 136.330 174.471, 135.594 173.073, 135.342 173.325 C 135.089 173.577, 135.561 175.407, 136.390 177.392 L 137.898 181 145.949 181 C 150.377 181, 154 180.872, 154 180.715 C 154 180.558, 150.413 171.942, 146.029 161.569 C 138.177 142.991, 134.740 136.512, 132.218 135.535 C 131.513 135.262, 132.267 136.717, 133.892 138.769 M 97.986 143.026 C 95.836 147.044, 86.961 168.295, 87.294 168.628 C 87.482 168.815, 90.361 162.676, 93.692 154.984 C 99.193 142.284, 100.843 137.688, 97.986 143.026 M 112.433 145.710 C 110.529 147.614, 109.831 149.116, 102.537 167 L 97.438 179.500 90.236 179.793 L 83.034 180.087 85.042 175.402 C 86.147 172.825, 86.875 170.542, 86.661 170.328 C 86.282 169.949, 82 179.272, 82 180.476 C 82 180.809, 85.650 180.950, 90.111 180.790 L 98.221 180.500 104.084 166.138 C 112.008 146.725, 112.697 145.639, 117.550 144.892 L 121.500 144.284 117.821 144.142 C 115.528 144.053, 113.499 144.644, 112.433 145.710 M 124.377 149.131 C 125.680 151.534, 128.446 157.670, 130.523 162.767 C 132.600 167.864, 134.490 171.843, 134.724 171.610 C 135.403 170.931, 124.947 147.201, 123.405 145.921 C 122.636 145.283, 123.074 146.727, 124.377 149.131 M 14.039 151.350 C 13.994 153.476, 20.132 160.008, 22.150 159.983 C 22.892 159.974, 21.983 158.995, 20.128 157.808 C 18.273 156.620, 16.153 154.265, 15.417 152.575 C 14.526 150.529, 14.065 150.119, 14.039 151.350 M 38.797 151.745 C 43.361 151.930, 50.561 151.929, 54.797 151.742 C 59.034 151.555, 55.300 151.404, 46.500 151.405 C 37.700 151.406, 34.234 151.559, 38.797 151.745 M 70.765 156.423 C 74.283 159.647, 74.500 160.195, 74.500 165.843 C 74.500 170.859, 74.092 172.275, 72 174.511 C 67.492 179.330, 66.685 179.474, 41 180.034 L 16.500 180.569 40.800 180.784 C 67.488 181.021, 68.420 180.855, 73.381 174.959 C 75.553 172.377, 76 170.849, 76 165.994 C 76 160.724, 75.666 159.788, 72.632 156.571 C 70.779 154.607, 68.761 153, 68.147 153 C 67.532 153, 68.710 154.540, 70.765 156.423 M 41 160.955 C 50.625 161.255, 59.063 161.864, 59.750 162.309 C 61.340 163.338, 61.370 167.230, 59.800 168.800 C 58.944 169.656, 52.644 170, 37.800 170 C 18.627 170, 17.006 170.137, 17.079 171.750 C 17.126 172.795, 17.361 172.997, 17.662 172.250 C 18.042 171.308, 23.155 171, 38.428 171 C 56.788 171, 58.845 170.828, 60.345 169.171 C 62.650 166.625, 62.409 163.400, 59.777 161.557 C 57.946 160.274, 54.557 160.036, 40.527 160.205 L 23.500 160.409 41 160.955 M 252.231 164.231 C 250.998 166.481, 250.185 168.519, 250.425 168.758 C 250.664 168.998, 251.823 167.307, 253 165 C 255.783 159.544, 255.147 158.907, 252.231 164.231" stroke="none" fill="#28c3aa" fill-rule="evenodd"/></svg>